<svg width="40" height="40" viewBox="0 0 40 40" fill="none" xmlns="http://www.w3.org/2000/svg">
<rect x="0.5" y="0.5" width="39" height="39" stroke="#DEE2E6"/>
<path d="M15.2363 14.8447V19H14.333V13.7168H15.1875L15.2363 14.8447ZM15.0215 16.1582L14.6455 16.1436C14.6488 15.7822 14.7025 15.4486 14.8066 15.1426C14.9108 14.8333 15.0573 14.5648 15.2461 14.3369C15.4349 14.109 15.6595 13.9333 15.9199 13.8096C16.1836 13.6826 16.4749 13.6191 16.7939 13.6191C17.0544 13.6191 17.2887 13.6549 17.4971 13.7266C17.7054 13.7949 17.8828 13.9056 18.0293 14.0586C18.179 14.2116 18.293 14.4102 18.3711 14.6543C18.4492 14.8952 18.4883 15.1898 18.4883 15.5381V19H17.5801V15.5283C17.5801 15.2516 17.5394 15.0303 17.458 14.8643C17.3766 14.695 17.2578 14.5729 17.1016 14.498C16.9453 14.4199 16.7533 14.3809 16.5254 14.3809C16.3008 14.3809 16.0957 14.4281 15.9102 14.5225C15.7279 14.6169 15.57 14.7471 15.4365 14.9131C15.3063 15.0791 15.2038 15.2695 15.1289 15.4844C15.0573 15.696 15.0215 15.9206 15.0215 16.1582ZM19.6211 16.417V16.3047C19.6211 15.9238 19.6764 15.5706 19.7871 15.2451C19.8978 14.9163 20.0573 14.6315 20.2656 14.3906C20.474 14.1465 20.7262 13.9577 21.0225 13.8242C21.3187 13.6875 21.6507 13.6191 22.0186 13.6191C22.3896 13.6191 22.7233 13.6875 23.0195 13.8242C23.319 13.9577 23.5729 14.1465 23.7812 14.3906C23.9928 14.6315 24.154 14.9163 24.2646 15.2451C24.3753 15.5706 24.4307 15.9238 24.4307 16.3047V16.417C24.4307 16.7979 24.3753 17.151 24.2646 17.4766C24.154 17.8021 23.9928 18.0869 23.7812 18.3311C23.5729 18.5719 23.3206 18.7607 23.0244 18.8975C22.7314 19.0309 22.3994 19.0977 22.0283 19.0977C21.6572 19.0977 21.3236 19.0309 21.0273 18.8975C20.7311 18.7607 20.4772 18.5719 20.2656 18.3311C20.0573 18.0869 19.8978 17.8021 19.7871 17.4766C19.6764 17.151 19.6211 16.7979 19.6211 16.417ZM20.5244 16.3047V16.417C20.5244 16.6807 20.5553 16.9297 20.6172 17.1641C20.679 17.3952 20.7718 17.6003 20.8955 17.7793C21.0225 17.9583 21.1803 18.0999 21.3691 18.2041C21.5579 18.305 21.7777 18.3555 22.0283 18.3555C22.2757 18.3555 22.4922 18.305 22.6777 18.2041C22.8665 18.0999 23.0228 17.9583 23.1465 17.7793C23.2702 17.6003 23.363 17.3952 23.4248 17.1641C23.4899 16.9297 23.5225 16.6807 23.5225 16.417V16.3047C23.5225 16.0443 23.4899 15.7985 23.4248 15.5674C23.363 15.333 23.2686 15.1263 23.1416 14.9473C23.0179 14.765 22.8617 14.6217 22.6729 14.5176C22.4873 14.4134 22.2692 14.3613 22.0186 14.3613C21.7712 14.3613 21.5531 14.4134 21.3643 14.5176C21.1787 14.6217 21.0225 14.765 20.8955 14.9473C20.7718 15.1263 20.679 15.333 20.6172 15.5674C20.5553 15.7985 20.5244 16.0443 20.5244 16.3047ZM6.75977 22.7324V29.0312H5.85156V21.7168H6.68164L6.75977 22.7324ZM10.3193 24.3145V24.417C10.3193 24.8011 10.2738 25.1576 10.1826 25.4863C10.0915 25.8118 9.95801 26.0951 9.78223 26.3359C9.6097 26.5768 9.39648 26.764 9.14258 26.8975C8.88867 27.0309 8.59733 27.0977 8.26855 27.0977C7.93327 27.0977 7.63704 27.0423 7.37988 26.9316C7.12272 26.821 6.90462 26.6598 6.72559 26.4482C6.54655 26.2367 6.40332 25.9827 6.2959 25.6865C6.19173 25.3903 6.12012 25.0566 6.08105 24.6855V24.1387C6.12012 23.748 6.19336 23.3981 6.30078 23.0889C6.4082 22.7796 6.5498 22.516 6.72559 22.2979C6.90462 22.0765 7.12109 21.9089 7.375 21.7949C7.62891 21.6777 7.92188 21.6191 8.25391 21.6191C8.58594 21.6191 8.88053 21.6842 9.1377 21.8145C9.39486 21.9414 9.61133 22.1237 9.78711 22.3613C9.96289 22.599 10.0947 22.8838 10.1826 23.2158C10.2738 23.5446 10.3193 23.9108 10.3193 24.3145ZM9.41113 24.417V24.3145C9.41113 24.0508 9.38346 23.8034 9.32812 23.5723C9.27279 23.3379 9.18652 23.1328 9.06934 22.957C8.9554 22.778 8.80892 22.638 8.62988 22.5371C8.45085 22.4329 8.23763 22.3809 7.99023 22.3809C7.76237 22.3809 7.5638 22.4199 7.39453 22.498C7.22852 22.5762 7.08691 22.682 6.96973 22.8154C6.85254 22.9456 6.75651 23.0954 6.68164 23.2646C6.61003 23.4307 6.55632 23.6032 6.52051 23.7822V25.0469C6.58561 25.2747 6.67676 25.4896 6.79395 25.6914C6.91113 25.89 7.06738 26.0511 7.2627 26.1748C7.45801 26.2952 7.70378 26.3555 8 26.3555C8.24414 26.3555 8.4541 26.305 8.62988 26.2041C8.80892 26.0999 8.9554 25.9583 9.06934 25.7793C9.18652 25.6003 9.27279 25.3952 9.32812 25.1641C9.38346 24.9297 9.41113 24.6807 9.41113 24.417ZM12.4531 21.7168V27H11.5449V21.7168H12.4531ZM11.4766 20.3154C11.4766 20.1689 11.5205 20.0452 11.6084 19.9443C11.6995 19.8434 11.833 19.793 12.0088 19.793C12.1813 19.793 12.3132 19.8434 12.4043 19.9443C12.4987 20.0452 12.5459 20.1689 12.5459 20.3154C12.5459 20.4554 12.4987 20.5758 12.4043 20.6768C12.3132 20.7744 12.1813 20.8232 12.0088 20.8232C11.833 20.8232 11.6995 20.7744 11.6084 20.6768C11.5205 20.5758 11.4766 20.4554 11.4766 20.3154ZM16.0176 26.3555C16.2324 26.3555 16.431 26.3115 16.6133 26.2236C16.7956 26.1357 16.9453 26.0153 17.0625 25.8623C17.1797 25.7061 17.2464 25.5286 17.2627 25.3301H18.1221C18.1058 25.6426 18 25.9339 17.8047 26.2041C17.6126 26.471 17.3604 26.6875 17.0479 26.8535C16.7354 27.0163 16.3919 27.0977 16.0176 27.0977C15.6204 27.0977 15.2738 27.0277 14.9775 26.8877C14.6846 26.7477 14.4404 26.5557 14.2451 26.3115C14.0531 26.0674 13.9082 25.7874 13.8105 25.4717C13.7161 25.1527 13.6689 24.8158 13.6689 24.4609V24.2559C13.6689 23.901 13.7161 23.5658 13.8105 23.25C13.9082 22.931 14.0531 22.6494 14.2451 22.4053C14.4404 22.1611 14.6846 21.9691 14.9775 21.8291C15.2738 21.6891 15.6204 21.6191 16.0176 21.6191C16.431 21.6191 16.7923 21.7038 17.1016 21.873C17.4108 22.0391 17.6533 22.2669 17.8291 22.5566C18.0081 22.8431 18.1058 23.1686 18.1221 23.5332H17.2627C17.2464 23.3151 17.1846 23.1182 17.0771 22.9424C16.973 22.7666 16.8298 22.6266 16.6475 22.5225C16.4684 22.415 16.2585 22.3613 16.0176 22.3613C15.7409 22.3613 15.5081 22.4167 15.3193 22.5273C15.1338 22.6348 14.9857 22.7812 14.875 22.9668C14.7676 23.1491 14.6895 23.3525 14.6406 23.5771C14.5951 23.7985 14.5723 24.0247 14.5723 24.2559V24.4609C14.5723 24.6921 14.5951 24.9199 14.6406 25.1445C14.6862 25.3691 14.7627 25.5726 14.8701 25.7549C14.9808 25.9372 15.1289 26.0837 15.3145 26.1943C15.5033 26.3018 15.7376 26.3555 16.0176 26.3555ZM21.3496 21.7168V22.4102H18.4932V21.7168H21.3496ZM19.46 20.4326H20.3633V25.6914C20.3633 25.8704 20.391 26.0055 20.4463 26.0967C20.5016 26.1878 20.5732 26.248 20.6611 26.2773C20.749 26.3066 20.8434 26.3213 20.9443 26.3213C21.0192 26.3213 21.0973 26.3148 21.1787 26.3018C21.2633 26.2855 21.3268 26.2725 21.3691 26.2627L21.374 27C21.3024 27.0228 21.208 27.0439 21.0908 27.0635C20.9769 27.0863 20.8385 27.0977 20.6758 27.0977C20.4544 27.0977 20.251 27.0537 20.0654 26.9658C19.8799 26.8779 19.7318 26.7314 19.6211 26.5264C19.5137 26.318 19.46 26.0381 19.46 25.6865V20.4326ZM25.6416 25.7793V21.7168H26.5498V27H25.6855L25.6416 25.7793ZM25.8125 24.666L26.1885 24.6562C26.1885 25.0078 26.151 25.3333 26.0762 25.6328C26.0046 25.929 25.8874 26.1862 25.7246 26.4043C25.5618 26.6224 25.3486 26.7933 25.085 26.917C24.8213 27.0374 24.5007 27.0977 24.123 27.0977C23.8659 27.0977 23.6299 27.0602 23.415 26.9854C23.2035 26.9105 23.0212 26.7949 22.8682 26.6387C22.7152 26.4824 22.5964 26.279 22.5117 26.0283C22.4303 25.7777 22.3896 25.4766 22.3896 25.125V21.7168H23.293V25.1348C23.293 25.3724 23.319 25.5693 23.3711 25.7256C23.4264 25.8786 23.4997 26.0007 23.5908 26.0918C23.6852 26.1797 23.7894 26.2415 23.9033 26.2773C24.0205 26.3132 24.141 26.3311 24.2646 26.3311C24.6488 26.3311 24.9531 26.2578 25.1777 26.1113C25.4023 25.9616 25.5635 25.7614 25.6611 25.5107C25.762 25.2568 25.8125 24.9753 25.8125 24.666ZM28.8301 22.5469V27H27.9268V21.7168H28.8057L28.8301 22.5469ZM30.4805 21.6875L30.4756 22.5273C30.4007 22.5111 30.3291 22.5013 30.2607 22.498C30.1956 22.4915 30.1208 22.4883 30.0361 22.4883C29.8278 22.4883 29.6439 22.5208 29.4844 22.5859C29.3249 22.651 29.1898 22.7422 29.0791 22.8594C28.9684 22.9766 28.8805 23.1165 28.8154 23.2793C28.7536 23.4388 28.7129 23.6146 28.6934 23.8066L28.4395 23.9531C28.4395 23.6341 28.4704 23.3346 28.5322 23.0547C28.5973 22.7747 28.6966 22.5273 28.8301 22.3125C28.9635 22.0944 29.1328 21.9251 29.3379 21.8047C29.5462 21.681 29.7936 21.6191 30.0801 21.6191C30.1452 21.6191 30.2201 21.6273 30.3047 21.6436C30.3893 21.6566 30.4479 21.6712 30.4805 21.6875ZM33.4102 27.0977C33.0423 27.0977 32.7087 27.0358 32.4092 26.9121C32.113 26.7852 31.8574 26.6077 31.6426 26.3799C31.431 26.152 31.2682 25.8818 31.1543 25.5693C31.0404 25.2568 30.9834 24.915 30.9834 24.5439V24.3389C30.9834 23.9092 31.0469 23.5267 31.1738 23.1914C31.3008 22.8529 31.4733 22.5664 31.6914 22.332C31.9095 22.0977 32.1569 21.9202 32.4336 21.7998C32.7103 21.6794 32.9967 21.6191 33.293 21.6191C33.6706 21.6191 33.9961 21.6842 34.2695 21.8145C34.5462 21.9447 34.7725 22.127 34.9482 22.3613C35.124 22.5924 35.2542 22.8659 35.3389 23.1816C35.4235 23.4941 35.4658 23.8359 35.4658 24.207V24.6123H31.5205V23.875H34.5625V23.8066C34.5495 23.5723 34.5007 23.3444 34.416 23.123C34.3346 22.9017 34.2044 22.7194 34.0254 22.5762C33.8464 22.4329 33.6022 22.3613 33.293 22.3613C33.0879 22.3613 32.8991 22.4053 32.7266 22.4932C32.554 22.5778 32.4059 22.7048 32.2822 22.874C32.1585 23.0433 32.0625 23.25 31.9941 23.4941C31.9258 23.7383 31.8916 24.0199 31.8916 24.3389V24.5439C31.8916 24.7946 31.9258 25.0306 31.9941 25.252C32.0658 25.4701 32.1683 25.6621 32.3018 25.8281C32.4385 25.9941 32.6029 26.1243 32.7949 26.2188C32.9902 26.3132 33.2116 26.3604 33.459 26.3604C33.778 26.3604 34.0482 26.2952 34.2695 26.165C34.4909 26.0348 34.6846 25.8607 34.8506 25.6426L35.3975 26.0771C35.2835 26.2497 35.1387 26.4141 34.9629 26.5703C34.7871 26.7266 34.5706 26.8535 34.3135 26.9512C34.0596 27.0488 33.7585 27.0977 33.4102 27.0977Z" fill="#DEE2E6"/>
</svg>
